<svg width="24" height="22" viewBox="0 0 24 22" fill="none" xmlns="http://www.w3.org/2000/svg">
<path d="M8.8 5.2002H5.6V1.9002C5.6 1.5002 5.3 1.1002 4.8 1.1002C4.3 1.1002 4.1 1.5002 4.1 1.9002V5.2002H0.8C0.4 5.2002 0 5.5002 0 6.0002C0 6.5002 0.3 6.8002 0.8 6.8002H4.1V10.1002C4.1 10.5002 4.4 10.9002 4.9 10.9002C5.4 10.9002 5.7 10.6002 5.7 10.1002V6.7002H9C9.4 6.7002 9.8 6.4002 9.8 5.9002C9.8 5.4002 9.3 5.2002 8.8 5.2002ZM23.8 0.300195V0.200195H23.7C23.6 0.200195 14.5 1.4002 9.3 11.9002C5.5 19.5002 5.7 21.8002 6 21.8002C6.3 21.9002 9.4 15.3002 12.7 12.6002C17.9 11.5002 19.3 9.0002 19.3 9.0002C19.3 9.0002 17.8 9.2002 17.2 9.2002C16.4 9.2002 15.8 9.0002 15.5 8.9002C16.8 7.7002 17.9 7.4002 19 7.2002C19.9 7.0002 20.8 6.8002 22 6.0002C24.2 4.4002 23.9 0.500195 23.8 0.300195Z" fill="#fff"/>
</svg>
